<mxfile host="app.diagrams.net" agent="Mozilla/5.0 (Windows NT 10.0; Win64; x64) AppleWebKit/537.36 (KHTML, like Gecko) Chrome/136.0.0.0 Safari/537.36 Edg/136.0.0.0" version="27.1.1">
  <diagram name="Seite-1" id="U9DgNSbXKtYAfLGcXWVY">
    <mxGraphModel dx="3778" dy="1703" grid="1" gridSize="10" guides="1" tooltips="1" connect="1" arrows="1" fold="1" page="1" pageScale="1" pageWidth="827" pageHeight="1169" math="0" shadow="0">
      <root>
        <mxCell id="0" />
        <mxCell id="1" parent="0" />
        <mxCell id="BKYR9DTIqUguBfuRsABO-1" value="&lt;font style=&quot;font-size: 40px;&quot;&gt;Arduino Uno R3&lt;/font&gt;" style="rounded=0;whiteSpace=wrap;html=1;" vertex="1" parent="1">
          <mxGeometry x="80" y="235" width="500" height="700" as="geometry" />
        </mxCell>
        <mxCell id="BKYR9DTIqUguBfuRsABO-14" style="edgeStyle=orthogonalEdgeStyle;rounded=0;orthogonalLoop=1;jettySize=auto;html=1;exitX=0.5;exitY=0;exitDx=0;exitDy=0;" edge="1" parent="1" source="BKYR9DTIqUguBfuRsABO-2" target="BKYR9DTIqUguBfuRsABO-12">
          <mxGeometry relative="1" as="geometry" />
        </mxCell>
        <mxCell id="BKYR9DTIqUguBfuRsABO-2" value="&lt;font style=&quot;font-size: 40px;&quot;&gt;ESP32-Cam&lt;/font&gt;" style="rounded=0;whiteSpace=wrap;html=1;" vertex="1" parent="1">
          <mxGeometry x="1040" y="385" width="270" height="400" as="geometry" />
        </mxCell>
        <mxCell id="BKYR9DTIqUguBfuRsABO-15" style="edgeStyle=orthogonalEdgeStyle;rounded=0;orthogonalLoop=1;jettySize=auto;html=1;entryX=0;entryY=0.25;entryDx=0;entryDy=0;" edge="1" parent="1" source="BKYR9DTIqUguBfuRsABO-5" target="BKYR9DTIqUguBfuRsABO-1">
          <mxGeometry relative="1" as="geometry" />
        </mxCell>
        <mxCell id="BKYR9DTIqUguBfuRsABO-5" value="&lt;font style=&quot;font-size: 40px;&quot;&gt;Sensors&lt;/font&gt;" style="rounded=0;whiteSpace=wrap;html=1;" vertex="1" parent="1">
          <mxGeometry x="-520" y="235" width="250" height="250" as="geometry" />
        </mxCell>
        <mxCell id="BKYR9DTIqUguBfuRsABO-8" value="" style="shape=flexArrow;endArrow=classic;html=1;rounded=0;exitX=1;exitY=0.5;exitDx=0;exitDy=0;" edge="1" parent="1" source="BKYR9DTIqUguBfuRsABO-1" target="BKYR9DTIqUguBfuRsABO-2">
          <mxGeometry width="50" height="50" relative="1" as="geometry">
            <mxPoint x="470" y="450" as="sourcePoint" />
            <mxPoint x="520" y="400" as="targetPoint" />
          </mxGeometry>
        </mxCell>
        <mxCell id="BKYR9DTIqUguBfuRsABO-9" value="&lt;font style=&quot;font-size: 40px;&quot;&gt;Serial&lt;/font&gt;" style="edgeLabel;html=1;align=center;verticalAlign=middle;resizable=0;points=[];" vertex="1" connectable="0" parent="BKYR9DTIqUguBfuRsABO-8">
          <mxGeometry x="0.1003" y="-2" relative="1" as="geometry">
            <mxPoint as="offset" />
          </mxGeometry>
        </mxCell>
        <mxCell id="BKYR9DTIqUguBfuRsABO-12" value="&lt;font style=&quot;font-size: 20px;&quot;&gt;MicroSD&lt;/font&gt;" style="rounded=0;whiteSpace=wrap;html=1;" vertex="1" parent="1">
          <mxGeometry x="1140" y="155" width="70" height="80" as="geometry" />
        </mxCell>
        <mxCell id="BKYR9DTIqUguBfuRsABO-22" style="edgeStyle=orthogonalEdgeStyle;rounded=0;orthogonalLoop=1;jettySize=auto;html=1;entryX=0;entryY=0.75;entryDx=0;entryDy=0;" edge="1" parent="1" source="BKYR9DTIqUguBfuRsABO-18" target="BKYR9DTIqUguBfuRsABO-1">
          <mxGeometry relative="1" as="geometry" />
        </mxCell>
        <mxCell id="BKYR9DTIqUguBfuRsABO-18" value="&lt;font style=&quot;font-size: 40px;&quot;&gt;Power&lt;/font&gt;" style="rounded=0;whiteSpace=wrap;html=1;" vertex="1" parent="1">
          <mxGeometry x="-520" y="685" width="250" height="250" as="geometry" />
        </mxCell>
        <mxCell id="BKYR9DTIqUguBfuRsABO-25" style="edgeStyle=orthogonalEdgeStyle;rounded=0;orthogonalLoop=1;jettySize=auto;html=1;exitX=0.5;exitY=0;exitDx=0;exitDy=0;entryX=0.5;entryY=1;entryDx=0;entryDy=0;" edge="1" parent="1" source="BKYR9DTIqUguBfuRsABO-24" target="BKYR9DTIqUguBfuRsABO-2">
          <mxGeometry relative="1" as="geometry" />
        </mxCell>
        <mxCell id="BKYR9DTIqUguBfuRsABO-24" value="&lt;font style=&quot;font-size: 20px;&quot;&gt;RTC&amp;nbsp;&lt;/font&gt;" style="rounded=0;whiteSpace=wrap;html=1;" vertex="1" parent="1">
          <mxGeometry x="1140" y="935" width="70" height="80" as="geometry" />
        </mxCell>
      </root>
    </mxGraphModel>
  </diagram>
</mxfile>
